<?xml version="1.0" standalone="no"?>
<!DOCTYPE svg PUBLIC "-//W3C//DTD SVG 20010904//EN"
 "http://www.w3.org/TR/2001/REC-SVG-20010904/DTD/svg10.dtd">
<svg version="1.0" xmlns="http://www.w3.org/2000/svg"
 width="200.000000pt" height="200.000000pt" viewBox="0 0 200.000000 200.000000"
 preserveAspectRatio="xMidYMid meet">
<metadata>
Created by potrace 1.11, written by Peter Selinger 2001-2013
</metadata>
<g transform="translate(0.000000,200.000000) scale(0.100000,-0.100000)"
fill="#000000" stroke="none">
<path d="M805 1884 c-229 -50 -455 -211 -573 -407 -101 -167 -137 -313 -129
-516 6 -154 21 -217 78 -339 113 -244 329 -426 589 -499 93 -25 367 -25 460 0
311 87 560 336 647 647 25 93 25 367 0 460 -42 149 -130 301 -238 409 -107
106 -260 196 -404 236 -86 24 -337 30 -430 9z m360 -210 c217 -52 406 -221
485 -431 44 -117 43 -125 -9 -206 -90 -138 -188 -217 -268 -217 -90 1 -162 59
-301 243 -107 142 -152 188 -236 242 -143 91 -322 83 -446 -22 -38 -31 -37
-25 0 46 106 199 315 340 533 360 90 8 165 3 242 -15z m-460 -513 c64 -30 116
-82 224 -225 118 -157 178 -213 280 -264 70 -35 81 -37 165 -37 103 1 147 16
229 79 l49 37 -36 -68 c-94 -179 -256 -307 -451 -358 -79 -21 -251 -21 -330 0
-255 67 -457 273 -514 526 -8 37 -6 44 40 115 120 183 233 247 344 195z"/>
</g>
</svg>
